<mxfile host="app.diagrams.net" modified="2024-03-02T22:18:14.420Z" agent="Mozilla/5.0 (Windows NT 10.0; Win64; x64) AppleWebKit/537.36 (KHTML, like Gecko) Chrome/122.0.0.0 Safari/537.36" etag="QMVXTFLN_GuxIMATQ0qd" version="24.0.1" type="google">
  <diagram name="Página-1" id="DcR4aH3SwTYsqAexftkv">
    <mxGraphModel dx="2261" dy="746" grid="1" gridSize="10" guides="1" tooltips="1" connect="1" arrows="1" fold="1" page="1" pageScale="1" pageWidth="827" pageHeight="1169" math="0" shadow="0">
      <root>
        <mxCell id="0" />
        <mxCell id="1" parent="0" />
        <mxCell id="3RkvFhCx2So-HEZ_OlE9-4" value="«interface»&lt;br&gt;&lt;b&gt;FabricaCarro&lt;/b&gt;" style="html=1;whiteSpace=wrap;" parent="1" vertex="1">
          <mxGeometry x="-690" y="140" width="110" height="60" as="geometry" />
        </mxCell>
        <mxCell id="imCOxPkVPwo7ghYf__NO-37" style="edgeStyle=none;rounded=0;orthogonalLoop=1;jettySize=auto;html=1;dashed=1;strokeColor=default;align=center;verticalAlign=middle;fontFamily=Helvetica;fontSize=11;fontColor=default;labelBackgroundColor=default;endArrow=block;endFill=0;endSize=12;" edge="1" parent="1" source="3RkvFhCx2So-HEZ_OlE9-6" target="3RkvFhCx2So-HEZ_OlE9-4">
          <mxGeometry relative="1" as="geometry">
            <mxPoint x="-600" y="240" as="targetPoint" />
            <Array as="points">
              <mxPoint x="-635" y="270" />
            </Array>
          </mxGeometry>
        </mxCell>
        <mxCell id="3RkvFhCx2So-HEZ_OlE9-6" value="FabricaCarroB" style="swimlane;fontStyle=0;childLayout=stackLayout;horizontal=1;startSize=26;fillColor=none;horizontalStack=0;resizeParent=1;resizeParentMax=0;resizeLast=0;collapsible=1;marginBottom=0;whiteSpace=wrap;html=1;" parent="1" vertex="1">
          <mxGeometry x="-800" y="260" width="140" height="78" as="geometry">
            <mxRectangle x="-740" y="260" width="120" height="30" as="alternateBounds" />
          </mxGeometry>
        </mxCell>
        <mxCell id="3RkvFhCx2So-HEZ_OlE9-7" value="+Carro()" style="text;strokeColor=none;fillColor=none;align=left;verticalAlign=top;spacingLeft=4;spacingRight=4;overflow=hidden;rotatable=0;points=[[0,0.5],[1,0.5]];portConstraint=eastwest;whiteSpace=wrap;html=1;" parent="3RkvFhCx2So-HEZ_OlE9-6" vertex="1">
          <mxGeometry y="26" width="140" height="26" as="geometry" />
        </mxCell>
        <mxCell id="3RkvFhCx2So-HEZ_OlE9-8" value="+Motor()" style="text;strokeColor=none;fillColor=none;align=left;verticalAlign=top;spacingLeft=4;spacingRight=4;overflow=hidden;rotatable=0;points=[[0,0.5],[1,0.5]];portConstraint=eastwest;whiteSpace=wrap;html=1;" parent="3RkvFhCx2So-HEZ_OlE9-6" vertex="1">
          <mxGeometry y="52" width="140" height="26" as="geometry" />
        </mxCell>
        <mxCell id="imCOxPkVPwo7ghYf__NO-51" style="edgeStyle=none;rounded=0;orthogonalLoop=1;jettySize=auto;html=1;dashed=1;strokeColor=default;align=center;verticalAlign=middle;fontFamily=Helvetica;fontSize=11;fontColor=default;labelBackgroundColor=default;endArrow=block;endFill=0;endSize=12;" edge="1" parent="1" source="A1eHiPd9vcZHxZxQTrq7-19" target="A1eHiPd9vcZHxZxQTrq7-33">
          <mxGeometry relative="1" as="geometry">
            <mxPoint x="-250" y="80" as="targetPoint" />
            <Array as="points">
              <mxPoint x="-250" y="270" />
            </Array>
          </mxGeometry>
        </mxCell>
        <mxCell id="A1eHiPd9vcZHxZxQTrq7-19" value="CarroSedan" style="swimlane;fontStyle=0;childLayout=stackLayout;horizontal=1;startSize=26;fillColor=none;horizontalStack=0;resizeParent=1;resizeParentMax=0;resizeLast=0;collapsible=1;marginBottom=0;whiteSpace=wrap;html=1;" parent="1" vertex="1">
          <mxGeometry x="-430" y="260" width="140" height="52" as="geometry">
            <mxRectangle x="-740" y="260" width="120" height="30" as="alternateBounds" />
          </mxGeometry>
        </mxCell>
        <mxCell id="A1eHiPd9vcZHxZxQTrq7-20" value="+exibirinfo()" style="text;strokeColor=none;fillColor=none;align=left;verticalAlign=top;spacingLeft=4;spacingRight=4;overflow=hidden;rotatable=0;points=[[0,0.5],[1,0.5]];portConstraint=eastwest;whiteSpace=wrap;html=1;" parent="A1eHiPd9vcZHxZxQTrq7-19" vertex="1">
          <mxGeometry y="26" width="140" height="26" as="geometry" />
        </mxCell>
        <mxCell id="imCOxPkVPwo7ghYf__NO-53" style="edgeStyle=none;rounded=0;orthogonalLoop=1;jettySize=auto;html=1;dashed=1;strokeColor=default;align=center;verticalAlign=middle;fontFamily=Helvetica;fontSize=11;fontColor=default;labelBackgroundColor=default;endArrow=block;endFill=0;endSize=12;entryX=0.5;entryY=1;entryDx=0;entryDy=0;" edge="1" parent="1" source="A1eHiPd9vcZHxZxQTrq7-23" target="A1eHiPd9vcZHxZxQTrq7-33">
          <mxGeometry relative="1" as="geometry">
            <mxPoint x="-250" y="210" as="targetPoint" />
            <Array as="points">
              <mxPoint x="-250" y="270" />
            </Array>
          </mxGeometry>
        </mxCell>
        <mxCell id="A1eHiPd9vcZHxZxQTrq7-23" value="CarroCompacto" style="swimlane;fontStyle=0;childLayout=stackLayout;horizontal=1;startSize=26;fillColor=none;horizontalStack=0;resizeParent=1;resizeParentMax=0;resizeLast=0;collapsible=1;marginBottom=0;whiteSpace=wrap;html=1;" parent="1" vertex="1">
          <mxGeometry x="-220" y="260" width="140" height="52" as="geometry">
            <mxRectangle x="-740" y="260" width="120" height="30" as="alternateBounds" />
          </mxGeometry>
        </mxCell>
        <mxCell id="A1eHiPd9vcZHxZxQTrq7-24" value="+exibirinfo()" style="text;strokeColor=none;fillColor=none;align=left;verticalAlign=top;spacingLeft=4;spacingRight=4;overflow=hidden;rotatable=0;points=[[0,0.5],[1,0.5]];portConstraint=eastwest;whiteSpace=wrap;html=1;" parent="A1eHiPd9vcZHxZxQTrq7-23" vertex="1">
          <mxGeometry y="26" width="140" height="26" as="geometry" />
        </mxCell>
        <mxCell id="A1eHiPd9vcZHxZxQTrq7-33" value="«interface»&lt;br&gt;&lt;span style=&quot;text-align: left;&quot;&gt;Carro&lt;/span&gt;" style="html=1;whiteSpace=wrap;" parent="1" vertex="1">
          <mxGeometry x="-310" y="10" width="120" height="60" as="geometry" />
        </mxCell>
        <mxCell id="A1eHiPd9vcZHxZxQTrq7-34" value="«interface»&lt;br&gt;&lt;span style=&quot;text-align: left;&quot;&gt;Motor&lt;/span&gt;" style="html=1;whiteSpace=wrap;" parent="1" vertex="1">
          <mxGeometry x="-290" y="420" width="120" height="60" as="geometry" />
        </mxCell>
        <mxCell id="imCOxPkVPwo7ghYf__NO-7" style="edgeStyle=orthogonalEdgeStyle;rounded=0;orthogonalLoop=1;jettySize=auto;html=1;exitX=0.5;exitY=0.5;exitDx=0;exitDy=0;exitPerimeter=0;" edge="1" parent="1" source="A1eHiPd9vcZHxZxQTrq7-43" target="3RkvFhCx2So-HEZ_OlE9-4">
          <mxGeometry relative="1" as="geometry" />
        </mxCell>
        <mxCell id="imCOxPkVPwo7ghYf__NO-9" style="edgeStyle=orthogonalEdgeStyle;rounded=0;orthogonalLoop=1;jettySize=auto;html=1;exitX=1;exitY=0.3333333333333333;exitDx=0;exitDy=0;exitPerimeter=0;" edge="1" parent="1" source="A1eHiPd9vcZHxZxQTrq7-43" target="A1eHiPd9vcZHxZxQTrq7-33">
          <mxGeometry relative="1" as="geometry" />
        </mxCell>
        <mxCell id="A1eHiPd9vcZHxZxQTrq7-43" value="Main" style="shape=umlActor;verticalLabelPosition=bottom;verticalAlign=top;html=1;" parent="1" vertex="1">
          <mxGeometry x="-810" y="20" width="30" height="60" as="geometry" />
        </mxCell>
        <mxCell id="imCOxPkVPwo7ghYf__NO-1" value="FabricaCarroA" style="swimlane;fontStyle=0;childLayout=stackLayout;horizontal=1;startSize=26;fillColor=none;horizontalStack=0;resizeParent=1;resizeParentMax=0;resizeLast=0;collapsible=1;marginBottom=0;whiteSpace=wrap;html=1;" vertex="1" parent="1">
          <mxGeometry x="-610" y="260" width="140" height="78" as="geometry">
            <mxRectangle x="-740" y="260" width="120" height="30" as="alternateBounds" />
          </mxGeometry>
        </mxCell>
        <mxCell id="imCOxPkVPwo7ghYf__NO-2" value="+Carro()" style="text;strokeColor=none;fillColor=none;align=left;verticalAlign=top;spacingLeft=4;spacingRight=4;overflow=hidden;rotatable=0;points=[[0,0.5],[1,0.5]];portConstraint=eastwest;whiteSpace=wrap;html=1;" vertex="1" parent="imCOxPkVPwo7ghYf__NO-1">
          <mxGeometry y="26" width="140" height="26" as="geometry" />
        </mxCell>
        <mxCell id="imCOxPkVPwo7ghYf__NO-3" value="+ Motor()" style="text;strokeColor=none;fillColor=none;align=left;verticalAlign=top;spacingLeft=4;spacingRight=4;overflow=hidden;rotatable=0;points=[[0,0.5],[1,0.5]];portConstraint=eastwest;whiteSpace=wrap;html=1;" vertex="1" parent="imCOxPkVPwo7ghYf__NO-1">
          <mxGeometry y="52" width="140" height="26" as="geometry" />
        </mxCell>
        <mxCell id="imCOxPkVPwo7ghYf__NO-38" style="edgeStyle=none;rounded=0;orthogonalLoop=1;jettySize=auto;html=1;dashed=1;strokeColor=default;align=center;verticalAlign=middle;fontFamily=Helvetica;fontSize=11;fontColor=default;labelBackgroundColor=default;endArrow=block;endFill=0;endSize=12;" edge="1" parent="1" source="imCOxPkVPwo7ghYf__NO-1" target="3RkvFhCx2So-HEZ_OlE9-4">
          <mxGeometry relative="1" as="geometry">
            <Array as="points">
              <mxPoint x="-635" y="270" />
            </Array>
          </mxGeometry>
        </mxCell>
        <mxCell id="imCOxPkVPwo7ghYf__NO-67" style="edgeStyle=orthogonalEdgeStyle;rounded=0;orthogonalLoop=1;jettySize=auto;html=1;exitX=1;exitY=0.3333333333333333;exitDx=0;exitDy=0;exitPerimeter=0;entryX=0.992;entryY=0.4;entryDx=0;entryDy=0;entryPerimeter=0;" edge="1" parent="1" target="A1eHiPd9vcZHxZxQTrq7-34">
          <mxGeometry relative="1" as="geometry">
            <mxPoint x="-780" y="80" as="sourcePoint" />
            <mxPoint x="-230" y="380" as="targetPoint" />
            <Array as="points">
              <mxPoint x="-780" y="81" />
              <mxPoint x="-59" y="81" />
              <mxPoint x="-59" y="444" />
            </Array>
          </mxGeometry>
        </mxCell>
        <mxCell id="imCOxPkVPwo7ghYf__NO-73" style="edgeStyle=none;rounded=0;orthogonalLoop=1;jettySize=auto;html=1;entryX=0.5;entryY=1;entryDx=0;entryDy=0;dashed=1;strokeColor=default;align=center;verticalAlign=middle;fontFamily=Helvetica;fontSize=11;fontColor=default;labelBackgroundColor=default;endArrow=block;endFill=0;endSize=12;" edge="1" parent="1" source="imCOxPkVPwo7ghYf__NO-69" target="A1eHiPd9vcZHxZxQTrq7-34">
          <mxGeometry relative="1" as="geometry">
            <Array as="points">
              <mxPoint x="-230" y="550" />
            </Array>
          </mxGeometry>
        </mxCell>
        <mxCell id="imCOxPkVPwo7ghYf__NO-69" value="MotorGasolina" style="swimlane;fontStyle=0;childLayout=stackLayout;horizontal=1;startSize=26;fillColor=none;horizontalStack=0;resizeParent=1;resizeParentMax=0;resizeLast=0;collapsible=1;marginBottom=0;whiteSpace=wrap;html=1;" vertex="1" parent="1">
          <mxGeometry x="-413" y="580" width="140" height="52" as="geometry">
            <mxRectangle x="-740" y="260" width="120" height="30" as="alternateBounds" />
          </mxGeometry>
        </mxCell>
        <mxCell id="imCOxPkVPwo7ghYf__NO-70" value="+exibirinfo()" style="text;strokeColor=none;fillColor=none;align=left;verticalAlign=top;spacingLeft=4;spacingRight=4;overflow=hidden;rotatable=0;points=[[0,0.5],[1,0.5]];portConstraint=eastwest;whiteSpace=wrap;html=1;" vertex="1" parent="imCOxPkVPwo7ghYf__NO-69">
          <mxGeometry y="26" width="140" height="26" as="geometry" />
        </mxCell>
        <mxCell id="imCOxPkVPwo7ghYf__NO-74" style="edgeStyle=none;rounded=0;orthogonalLoop=1;jettySize=auto;html=1;dashed=1;strokeColor=default;align=center;verticalAlign=middle;fontFamily=Helvetica;fontSize=11;fontColor=default;labelBackgroundColor=default;endArrow=block;endFill=0;endSize=12;" edge="1" parent="1" source="imCOxPkVPwo7ghYf__NO-71">
          <mxGeometry relative="1" as="geometry">
            <mxPoint x="-230" y="480" as="targetPoint" />
            <Array as="points">
              <mxPoint x="-230" y="550" />
            </Array>
          </mxGeometry>
        </mxCell>
        <mxCell id="imCOxPkVPwo7ghYf__NO-71" value="MotorEletrico" style="swimlane;fontStyle=0;childLayout=stackLayout;horizontal=1;startSize=26;fillColor=none;horizontalStack=0;resizeParent=1;resizeParentMax=0;resizeLast=0;collapsible=1;marginBottom=0;whiteSpace=wrap;html=1;" vertex="1" parent="1">
          <mxGeometry x="-200" y="580" width="140" height="52" as="geometry">
            <mxRectangle x="-740" y="260" width="120" height="30" as="alternateBounds" />
          </mxGeometry>
        </mxCell>
        <mxCell id="imCOxPkVPwo7ghYf__NO-72" value="+exibirinfo()" style="text;strokeColor=none;fillColor=none;align=left;verticalAlign=top;spacingLeft=4;spacingRight=4;overflow=hidden;rotatable=0;points=[[0,0.5],[1,0.5]];portConstraint=eastwest;whiteSpace=wrap;html=1;" vertex="1" parent="imCOxPkVPwo7ghYf__NO-71">
          <mxGeometry y="26" width="140" height="26" as="geometry" />
        </mxCell>
        <mxCell id="imCOxPkVPwo7ghYf__NO-75" value="Use" style="endArrow=open;endSize=12;dashed=1;html=1;rounded=0;strokeColor=default;align=center;verticalAlign=middle;fontFamily=Helvetica;fontSize=11;fontColor=default;labelBackgroundColor=default;exitX=0.707;exitY=0.038;exitDx=0;exitDy=0;exitPerimeter=0;" edge="1" parent="1" source="imCOxPkVPwo7ghYf__NO-1" target="A1eHiPd9vcZHxZxQTrq7-23">
          <mxGeometry width="160" relative="1" as="geometry">
            <mxPoint x="-550" y="230" as="sourcePoint" />
            <mxPoint x="-140" y="230" as="targetPoint" />
            <Array as="points">
              <mxPoint x="-510" y="230" />
              <mxPoint x="-150" y="230" />
            </Array>
          </mxGeometry>
        </mxCell>
        <mxCell id="imCOxPkVPwo7ghYf__NO-76" value="Use" style="endArrow=open;endSize=12;dashed=1;html=1;rounded=0;strokeColor=default;align=center;verticalAlign=middle;fontFamily=Helvetica;fontSize=11;fontColor=default;labelBackgroundColor=default;exitX=0.786;exitY=1.077;exitDx=0;exitDy=0;exitPerimeter=0;entryX=0.429;entryY=0.923;entryDx=0;entryDy=0;entryPerimeter=0;" edge="1" parent="1" source="imCOxPkVPwo7ghYf__NO-3" target="imCOxPkVPwo7ghYf__NO-72">
          <mxGeometry width="160" relative="1" as="geometry">
            <mxPoint x="-540" y="380" as="sourcePoint" />
            <mxPoint x="-100" y="710" as="targetPoint" />
            <Array as="points">
              <mxPoint x="-500" y="380" />
              <mxPoint x="-500" y="710" />
              <mxPoint x="-140" y="710" />
            </Array>
          </mxGeometry>
        </mxCell>
        <mxCell id="imCOxPkVPwo7ghYf__NO-77" value="Use" style="endArrow=open;endSize=12;dashed=1;html=1;rounded=0;strokeColor=default;align=center;verticalAlign=middle;fontFamily=Helvetica;fontSize=11;fontColor=default;labelBackgroundColor=default;exitX=0.443;exitY=1.154;exitDx=0;exitDy=0;exitPerimeter=0;entryX=0;entryY=0;entryDx=0;entryDy=0;" edge="1" parent="1" source="3RkvFhCx2So-HEZ_OlE9-8" target="imCOxPkVPwo7ghYf__NO-69">
          <mxGeometry width="160" relative="1" as="geometry">
            <mxPoint x="-730" y="390" as="sourcePoint" />
            <mxPoint x="-740" y="620" as="targetPoint" />
            <Array as="points">
              <mxPoint x="-740" y="580" />
            </Array>
          </mxGeometry>
        </mxCell>
        <mxCell id="imCOxPkVPwo7ghYf__NO-78" value="Use" style="endArrow=open;endSize=12;dashed=1;html=1;rounded=0;strokeColor=default;align=center;verticalAlign=middle;fontFamily=Helvetica;fontSize=11;fontColor=default;labelBackgroundColor=default;exitX=0.857;exitY=1.154;exitDx=0;exitDy=0;exitPerimeter=0;entryX=0.414;entryY=1.077;entryDx=0;entryDy=0;entryPerimeter=0;" edge="1" parent="1" source="3RkvFhCx2So-HEZ_OlE9-8" target="A1eHiPd9vcZHxZxQTrq7-20">
          <mxGeometry width="160" relative="1" as="geometry">
            <mxPoint x="-710" y="410" as="sourcePoint" />
            <mxPoint x="-350" y="410" as="targetPoint" />
            <Array as="points">
              <mxPoint x="-680" y="410" />
              <mxPoint x="-372" y="410" />
            </Array>
          </mxGeometry>
        </mxCell>
      </root>
    </mxGraphModel>
  </diagram>
</mxfile>
